<svg id="Layer_1" data-name="Layer 1" xmlns="http://www.w3.org/2000/svg" viewBox="0 0 200 100"><defs><style>.cls-1{fill:#2d2e43;}</style></defs><title>ar-engine-2</title><path class="cls-1" d="M76,33V67a7,7,0,0,0,7,7h34a7,7,0,0,0,7-7V33a7,7,0,0,0-7-7H83A7,7,0,0,0,76,33Zm44,0V67a3,3,0,0,1-3,3H83a3,3,0,0,1-3-3V33a3,3,0,0,1,3-3h34A3,3,0,0,1,120,33Z"/><path class="cls-1" d="M133,59.52a3.88,3.88,0,1,0-3.88,3.88h0A3.89,3.89,0,0,0,133,59.52Zm-4,0a.12.12,0,0,1,.12-.12.13.13,0,0,1,.12.12C129.2,59.65,129,59.65,129,59.52Z"/><path class="cls-1" d="M144,48h-2.28l-3.26-8.26a2,2,0,0,0-1.86-1.26h-4.22a3.88,3.88,0,1,0-1.32,5.32,3.79,3.79,0,0,0,1.32-1.32h2.86L137.42,48h-5a3.9,3.9,0,1,0,0,4H144a2,2,0,0,0,0-4Z"/><path class="cls-1" d="M56,42.48H67.62a3.88,3.88,0,1,0,1.32-5.33,3.91,3.91,0,0,0-1.32,1.33H56a2,2,0,0,0,0,4Z"/><path class="cls-1" d="M56,61.52H67.62a3.88,3.88,0,1,0,1.32-5.32,3.79,3.79,0,0,0-1.32,1.32h-5L64.76,52h2.86a3.88,3.88,0,1,0,1.31-5.33A4,4,0,0,0,67.61,48H63.4a2,2,0,0,0-1.86,1.26l-3.26,8.25H56a2,2,0,0,0,0,4ZM71,50Z"/><path class="cls-1" d="M100,4a2,2,0,0,0-2,2V8.28l-8.26,3.26a2,2,0,0,0-1.26,1.86v4.22a3.88,3.88,0,1,0,5.32,1.32,3.79,3.79,0,0,0-1.32-1.32V14.76L98,12.58v5a3.9,3.9,0,1,0,4,0V6A2,2,0,0,0,100,4Z"/><path class="cls-1" d="M109.52,4a2,2,0,0,0-2,2V17.62a3.88,3.88,0,1,0,5.33,1.32,3.91,3.91,0,0,0-1.33-1.32V6A2,2,0,0,0,109.52,4Z"/><path class="cls-1" d="M109.52,96a2,2,0,0,0,2-2V82.38a3.88,3.88,0,1,0-5.32-1.32,3.79,3.79,0,0,0,1.32,1.32V94A2,2,0,0,0,109.52,96Z"/><path class="cls-1" d="M100,96a2,2,0,0,0,2-2V82.38a3.9,3.9,0,1,0-4,0v5l-5.51-2.18V82.38a3.89,3.89,0,1,0-4,0V86.6a2,2,0,0,0,1.26,1.86L98,91.72V94A2,2,0,0,0,100,96ZM90.48,79Z"/><path class="cls-1" d="M115,40.28l-14.06-8.11a1.82,1.82,0,0,0-1.86,0L85,40.28a1.89,1.89,0,0,0-.91,1.6V58.11a1.79,1.79,0,0,0,.91,1.6l14.06,8.11a2.11,2.11,0,0,0,1,.26,1.58,1.58,0,0,0,.91-.26L115,59.71a1.89,1.89,0,0,0,.91-1.6V41.88A1.75,1.75,0,0,0,115,40.28Zm-15-4.34,10.32,5.94L100,47.82,89.66,41.88ZM87.79,45.12l10.32,5.94V63L87.79,57ZM101.85,63V51.06l10.32-5.94V57Z"/></svg>