<svg xmlns="http://www.w3.org/2000/svg" viewBox="0 0 845.51 417.85"><defs><style>.cls-1,.cls-2,.cls-4,.cls-8{fill:#fff;}.cls-2,.cls-4,.cls-8{stroke:#fff;stroke-miterlimit:10;}.cls-3{fill:none;}.cls-4{font-size:30.29px;letter-spacing:0.02em;}.cls-4,.cls-8{font-family:DINAlternate-Bold, DIN Alternate;font-weight:700;}.cls-5{letter-spacing:0em;}.cls-6{letter-spacing:-0.02em;}.cls-7{letter-spacing:0.02em;}.cls-8{font-size:58.28px;}.cls-10,.cls-8{letter-spacing:0.07em;}.cls-9{letter-spacing:0.05em;}</style></defs><title>auggie</title><g id="Layer_2" data-name="Layer 2"><g id="Layer_1-2" data-name="Layer 1"><path class="cls-1" d="M454.68,411.9l-65.71,6c-.2-4-.38-7.64-.59-11.85l-24.8,1.94V366.21c-13.27-1.07-25.85-2-38.42-3.16A35.09,35.09,0,0,1,315,360.84q-46.64-19.12-93.12-38.6a29,29,0,0,1-7.2-4.33q-43.47-36.06-86.78-72.32a48.87,48.87,0,0,1-7.76-9.05C103.89,213.79,87.61,191,71.57,168.1a33.71,33.71,0,0,1-5.12-11.63c-8-35.53-15.75-71.11-23.55-106.69-.1-.46,0-1,.7-1.71q1.11,3.13,2.2,6.25h.68c.42-6,.52-12,1.4-17.91a24.73,24.73,0,0,1,3.63-9.88c3.5-5.23,7.75-10,12.2-15.52,1,1.73,1.8,2.88,2.39,4.12C70.35,24,74.63,32.81,78.69,41.75c.63,1.38.86,3.84.06,4.81C72.86,53.76,66.67,60.71,60.36,68L46.61,57.11c2.07,7.13,3.77,13.11,5.54,19.07q12,40.16,24,80.29A24.62,24.62,0,0,0,80,163.93c17.61,23.44,35.24,46.87,53.11,70.11,3,3.9,7,7.05,10.81,10.3,10.46,9,21,17.9,32.39,26.42-2.12-6.11-3.73-12.45-6.47-18.27-4.86-10.33-5.16-20.57-1.8-31.34,1.82-5.84,2.71-12,4.13-18.47a31.94,31.94,0,0,1,3.72,1.67c9.05,5.63,18.16,11.18,27,17.06a10.68,10.68,0,0,1,4,5.69q3.33,12.53,5.79,25.28a17.19,17.19,0,0,1-.61,8.17c-2.53,7.88-5.48,15.62-8.39,23.76l-20-7.05-.38.67c12.19,10.29,24.22,20.79,36.68,30.75,3.25,2.61,7.8,3.61,11.78,5.3Q261,326.4,290.17,338.79c1.21.51,2.46.91,4.56,1.69-2.53-7.5-4.08-14.71-7.3-21.06-6.08-12-3.9-23.84-1.33-35.92.79-3.7,1.45-7.43,2.25-11.61,1.56.65,2.77,1,3.88,1.62,10.6,5.58,21.16,11.25,31.81,16.73,2.79,1.43,4.15,3,4.08,6.46-.27,13.5-.25,27-.14,40.5,0,3.54-1,5-4.8,5.1-6.12.17-12.23,1-18.34,1.5-.14.59-.28,1.17-.41,1.75,6.3,1.78,12.53,4.68,18.92,5.1,11.61.75,23.31-.12,35,0,3.82,0,5.36-.89,5.19-5-.32-7.64-.09-15.3-.09-23.55l25.18-2.45V302.82l66.08-6Zm-66-60.94c0,1.5,0,4.14,0,5.55,5.23.16,10.26-.11,10.79-.63s.34-2.94.34-4.78H388.5v-7.69c-4.29.5-8,.47-12.05.94v7.29Zm.19,32.19c-.16-2.59.06-5.56-.1-8.3-2,0-4,.31-5.64.38-1.4.06-2.87-.06-4.26-.05a1.45,1.45,0,0,1-1.4-1.14c-1.68-7.8,2.37-8.89,2.78-8.89a75.42,75.42,0,0,0,8-.61v-7.86c-3.87.3-7.36.4-10.8.86-5.93.8-7.36,2.51-7.44,8.41,0,3.15,0,6.31,0,9.46.06,7,2.37,8.93,9.11,8.13,3.26-.39,6.58-.38,9.87-.55v22.06l50.48-4.29V382.81c-6.11.5-11.73,1-17.36,1.4-6.94.46-9.31-1.81-9.36-8.9-.06-8.5,0-17,0-25.49,0-7,.65-7.77,7.74-6.38a1.23,1.23,0,0,1,1,1.21v29.78c5.44,1.23,7.31-.44,7-5.51-.38-6.81-.1-13.66-.09-20.5s.1-7.26,7.89-6.33a1,1,0,0,1,.89,1v30.18l2.72,0c0-18.92.08-37.84,0-56.91-16.2,1.33-31.63,2.54-47,4-1.25.11-3.34,1.57-3.39,2.49-.3,6.25-.45,13-.45,19.59,2.39-.12,4.33-.62,6-.62,1.82,0,4.17-.17,6-.17,6.19,0,7.68,0,7.68,6.65q.21,14.25,0,28.5c0,2.47-1.61,5.66-7.92,5.66m43.16-41c0,9.55.29,21.59.22,30.55,0,1.44-2.64,1-4.21,1.31-.21,0-.19,6.56-.43,9.58,7.12-.07,11.62-3.07,11.75-7.83.33-11.12.11-22.25.11-33.61Zm-54.36,32.51,10.55-1.23v-8.71l-10.55,1.14Z"/><path class="cls-1" d="M799.29,55.58c1.26-3.32,2.1-5.5,2.93-7.68l.81.22c-2.16,10-4.29,20.06-6.48,30.07q-8.82,40.46-17.73,80.89a19.22,19.22,0,0,1-3,6.72c-16.72,23.67-33.38,47.39-50.49,70.78-4.16,5.68-9.55,10.61-15,15.18Q672.13,284,633.52,315.7a52.12,52.12,0,0,1-12.67,7.65q-43.67,18.45-87.57,36.32c-4.94,2-10.52,2.76-15.88,3.32-17.3,1.81-34.64,3.26-52.28,4.88v7l24.44-2.07c1.56,8.55,1.47,8.79-5.92,9.63-6.62.76-13.26,1.25-19.88,1.94-4.52.47-7.36-1.56-7.49-6-.29-10.31-.33-20.65-.06-31,.11-4.11,2.66-6.43,7.15-6.77,8.13-.61,16.23-1.63,24.33-2.5,4.43-.47,7.06,1.46,7.7,5.86.36,2.43.45,4.89.72,7.93,15.38-1.16,31.11,1.86,45.69-8-7-.62-13.32-1.41-19.6-1.62-3.62-.11-4.5-1.62-4.49-4.88.07-13.83-.07-27.66,0-41.49,0-1.43.63-3.59,1.66-4.16,12.33-6.79,24.8-13.34,38-20.35,2,11.22,4.09,21.6,5.46,32.07.37,2.87-1.38,6.08-2.38,9-3,9.08-6.17,18.12-9.63,28.23l29.75-12.62c12.41-5.26,24.7-10.81,37.27-15.65,7.57-2.91,13.24-8.13,19.19-13.17,8.37-7.09,16.75-14.19,24.78-22l-19.9,7c-3.26-9.21-6.62-18.2-9.52-27.34-.58-1.82.47-4.22.93-6.31,1.74-8,3.43-15.93,5.4-23.84a8.48,8.48,0,0,1,3-4.76c9.62-6.27,19.42-12.29,29.17-18.35a17.15,17.15,0,0,1,2.67-1c2.47,11.55,4.94,22.7,7.16,33.91.29,1.46-.6,3.21-1.14,4.77-3.39,9.84-6.83,19.66-10.7,30.77,22.21-18.65,44.13-35.34,59.83-58.8,11.1-16.58,24-31.94,35.91-48a35.27,35.27,0,0,0,5.29-10.54c9.36-30.69,18.51-61.45,27.71-92.2.41-1.39.72-2.82,1.38-5.45L785.36,68c-6.46-7.44-12.78-14.65-18.94-22-.53-.62-.4-2.25,0-3.14,4.82-10.4,9.77-20.74,15.22-32.23,4.28,5.33,7.87,10.21,11.9,14.69A17.19,17.19,0,0,1,798,37.6C798.07,43.18,798.78,48.75,799.29,55.58Zm-312.74,301v-8.73c-5.18.45-9.91.93-14.65,1.26-8,.55-6.28,1.52-6.28,9.57Z"/><path class="cls-2" d="M742.29,305.77c-8.65,7.4-16.93,14.54-25.32,21.57-.76.64-2.17.65-3.29.72-9.79.64-19.57,1.4-29.37,1.69a9,9,0,0,1-6.2-2.68c-5.48-6.21-10.55-12.78-16-19.47,6-6.94,11.65-13.67,17.52-20.21a8.54,8.54,0,0,1,4.39-2c8.11-1.74,16.25-3.4,24.41-4.9a5.62,5.62,0,0,1,4.06.88C722.34,289.26,732,297.32,742.29,305.77Z"/><path class="cls-2" d="M103.4,305.76c10.32-8.51,20.14-16.67,30.08-24.66.94-.75,2.8-.78,4.12-.53,7.84,1.43,15.69,2.85,23.43,4.72a13.88,13.88,0,0,1,6.55,3.91c5.41,5.85,10.46,12,15.95,18.43-5.78,7.12-11.34,14.13-17.15,20.92-.85,1-2.94,1.37-4.42,1.3-10.13-.48-20.25-1.14-30.37-1.81a6,6,0,0,1-3.23-.93C120.12,320.17,112,313.12,103.4,305.76Z"/><path class="cls-2" d="M678.46,353.69c-10.21,6.78-20,13.69-30.13,19.93-14.63,9-9.67,9.75-25.62-.1-2-1.23-3.86-2.62-5.78-3.94-11.78-8.1-11.2-8.05-10.1-22.41.59-7.76,3.47-12.23,10.73-14.23a10.23,10.23,0,0,0,3.17-1.44c9.26-6.48,19.08-6.42,29.24-2.59a9.78,9.78,0,0,1,3.18,1.34c7.46,6.64,14.84,13.37,22.22,20.1C676.33,351.23,677.15,352.27,678.46,353.69Z"/><path class="cls-2" d="M166.71,353.63c9.15-8.29,16.77-17.42,26.41-23.19,7-4.21,16.33-7.63,25.47-2,4.92,3,10.63,4.77,15.71,7.58a8.33,8.33,0,0,1,3.52,5.15c.85,4.22.39,8.74,1.46,12.87,1.54,5.9-.61,9.21-5.54,12.11-6.88,4-13.33,8.81-20.16,12.94-1.59,1-4.57,1.55-5.92.71C194.11,371.42,180.77,362.69,166.71,353.63Z"/><path class="cls-2" d="M616.7,394.14c-8.66,2.77-16.56,5.19-24.38,7.85-6.92,2.36-13.69,5.17-20.65,7.38a10.3,10.3,0,0,1-6.4-.45c-12.81-5-20.45-13.58-20.07-28.29.14-5.33-1.6-10.72-2.55-16.46,10.24-2,20-4.07,29.75-5.83,1.44-.25,3.22.57,4.64,1.29,6.84,3.42,13.64,6.95,20.41,10.52a10.51,10.51,0,0,1,3.56,2.6C606.11,379.53,611.06,386.41,616.7,394.14Z"/><path class="cls-2" d="M229.26,393.74c5.33-7.3,10.14-14.3,15.44-20.9,1.66-2.06,4.74-2.92,7-4.52,12.35-8.61,25.44-12.07,40.14-6.52,3.36,1.26,7.08,1.57,11.14,2.42-1.82,11.25-3.6,22.19-5.37,33.13q-10.65,6.5-21.31,12.94c-.3.17-.95-.21-1.42-.38q-21.69-7.43-43.37-14.89A17.22,17.22,0,0,1,229.26,393.74Z"/><path class="cls-2" d="M614.79,245.08c.56,7.11,1.21,14.2,1.66,21.29.61,9.64,1.27,19.28,1.42,28.92a9.54,9.54,0,0,1-3,6.76c-7.56,6-15.45,11.58-23.4,17.06a5.22,5.22,0,0,1-4.71-.11c-4.78-3-9.39-6.34-13.84-9.83a4.77,4.77,0,0,1-1.35-4q5.64-21.47,11.7-42.83a6,6,0,0,1,2.55-3.37c9-4.76,18-9.33,27.09-13.92C613.28,244.83,613.86,245,614.79,245.08Z"/><path class="cls-2" d="M230.63,243.92c10.76,5.48,20.25,10.22,29.6,15.22,1.22.65,2.06,2.55,2.48,4.05,3.83,13.6,7.41,27.28,11.35,40.85.88,3,0,4.54-2.36,6.1-4,2.64-8,5.44-11.81,8.39-2.28,1.76-4.1,2.14-6.59.26-7.16-5.43-14.47-10.67-21.78-15.91a8.4,8.4,0,0,1-3.92-8C228.68,278.29,229.59,261.7,230.63,243.92Z"/><path class="cls-2" d="M791.74,239.8c-6.59,8.07-12.26,16.66-19.62,23.39-4.36,4-11.59,4.7-17.17,7.56-6.11,3.13-11.14,3-16.74-1.41s-12-7.74-18.55-11.91c3.52-6.9,7.4-13.44,10.26-20.41,2.59-6.29,6.57-9.48,13.32-9.38a9.09,9.09,0,0,0,3.39-.73C764.7,219.73,777.3,231.56,791.74,239.8Z"/><path class="cls-2" d="M53.79,239.6c9.29-5.23,17.74-10.16,26.39-14.72,1.51-.8,3.85-.33,5.74,0q11.3,1.8,22.56,3.9c1.32.25,3.11.89,3.65,1.9,4.72,8.73,9.21,17.59,13.93,26.74-8.49,5.37-16.56,10.58-24.79,15.54-1.14.68-3.22.48-4.6,0-7-2.58-13.93-5.37-20.87-8.14A7.39,7.39,0,0,1,72.87,263C66.64,255.46,60.5,247.85,53.79,239.6Z"/><path class="cls-2" d="M714.07,157.25c4.32,9.66,8.27,18.09,11.79,26.69.87,2.14.46,4.86.44,7.31-.07,6.66-.1,13.32-.48,20-.09,1.74-.91,4-2.19,5-7.54,5.74-15.31,11.18-23.65,17.18-4.68-7.45-9.24-14.69-13.79-21.95a1.41,1.41,0,0,1-.21-1c2-8.57,2.3-18.07,6.41-25.47C697.86,175.19,706.27,167,714.07,157.25Z"/><path class="cls-2" d="M131.59,157.24c7.77,9.68,16.13,17.77,21.48,27.5,4.16,7.56,4.57,17.19,6.6,25.9a2.12,2.12,0,0,1-.47,1.38c-4.42,7-8.85,14-13.51,21.37-8.35-6-16.35-11.64-24.16-17.53-1.06-.8-1.63-2.79-1.7-4.28-.41-7.8-.63-15.62-.82-23.43a9.45,9.45,0,0,1,.63-3.89C123.4,175.59,127.27,167,131.59,157.24Z"/><path class="cls-2" d="M816.13,174.9c-2.13,9.67-4.3,19.73-6.59,29.75-.19.84-1.14,1.55-1.83,2.21a4.23,4.23,0,0,1-1.37.58c-6.66,2.53-13.67,7.76-19.91,7-9.74-1.21-19-6.51-29-10.28,5.67-9.57,11-18.57,16.35-27.51a5.08,5.08,0,0,1,2.35-1.61,5.61,5.61,0,0,1,2-.11Z"/><path class="cls-2" d="M88.15,204.11c-9.75,3.72-19,7.32-28.33,10.71-1,.38-2.59-.22-3.77-.69-6.32-2.53-14.31-3.63-18.42-8.2-3.91-4.35-3.81-12.35-5.37-18.77-1-4.18-1.84-8.4-2.83-12.95,7.66,0,14.87-.06,22.09,0,3,0,6,.86,9,.45,7.81-1.09,12.57,1.88,15.89,9.1C79.54,190.67,84,197,88.15,204.11Z"/><path class="cls-2" d="M6.68,126.73c8.78-3.27,17-6.38,25.27-9.32,1.08-.38,2.5.1,3.75.28.47.06.88.48,1.36.6,16,3.81,17.45,18.1,21.66,30.34.28.8-.48,2.05-1,3-.28.53-1,.85-1.54,1.24-4.73,3.38-9.17,8.79-14.29,9.55s-10.74-3.77-16.36-5c-9.35-2-14.12-7.18-15.15-16.66C9.91,136.24,8.08,131.84,6.68,126.73Z"/><path class="cls-2" d="M839,126.74c-2.28,8.35-4.34,16.35-6.74,24.26-.38,1.27-2.08,2.5-3.45,3-7.27,2.86-14.58,5.63-22,8.1a7.05,7.05,0,0,1-5.31-.69c-4.21-2.65-8.08-5.85-12.2-8.66-2.24-1.53-3.19-3-1.91-5.78a76.74,76.74,0,0,0,2.58-7.53c5.22-14.87,5.22-14.89,19.25-21.44,1.26-.59,3-1.15,4.18-.74C821.85,120.26,830.2,123.46,839,126.74Z"/><path class="cls-2" d="M83.09,61c5.81,7.81,11.4,15.23,16.82,22.77a4.74,4.74,0,0,1,.43,3.65q-2.9,9.8-6.18,19.48A7,7,0,0,1,91.92,110c-5.83,4.4-11.76,8.68-18.47,13.6-3.29-9.2-9.19-16.43-9.77-26.54C63,85.39,65.38,75.94,75,68.79,77.79,66.73,80,64,83.09,61Z"/><path class="cls-2" d="M761.79,62c6.44,5.89,12.46,11.36,18.42,16.9a3.93,3.93,0,0,1,1.36,2.54c-.49,10,2.41,20.31-3.47,29.74-2.26,3.63-3.8,7.7-6,12.3-6.72-5-13.62-9.14-19.22-14.63-2.76-2.71-2.68-8.08-4.62-11.87-4.26-8.31-3-15.15,3.56-21.8C755.82,71.09,758.83,66,761.79,62Z"/><path class="cls-2" d="M101.19,178.18c-5.81-6.52-11.26-12.53-16.56-18.67a4.91,4.91,0,0,1-.71-3.25c.3-4.48.67-9,1.22-13.41,1.35-11.08,7-22.89,15.9-32.93,2.22,4.24,4.39,8.26,6.46,12.34,4.13,8.16,8.28,16.3,12.22,24.55.67,1.41,1,3.81.28,4.91C114,160.47,107.75,169,101.19,178.18Z"/><path class="cls-2" d="M744.86,109.09c5.16,8.24,10.06,15,13.77,22.41,1.83,3.65,1.54,8.39,2.06,12.65.46,3.8.81,7.61,1,11.43.07,1.39,0,3.21-.84,4.16-5.16,6.06-10.53,11.93-16.34,18.42-6.59-9.19-12.88-17.9-19.07-26.66a3.27,3.27,0,0,1-.44-2.73C731.37,135.86,737.86,123,744.86,109.09Z"/><path class="cls-2" d="M33.76,111.49C26.24,106.15,19,101.12,12,95.92a8.77,8.77,0,0,1-2.44-3.63c-2.92-6.81-5.73-13.66-8.8-21,11.27-1.06,21.65-2.11,32-2.91a4.2,4.2,0,0,1,3.33,2c3.32,8.33,6.48,16.73,9.4,25.2.4,1.18-.36,3.22-1.26,4.3C41.05,103.71,37.59,107.29,33.76,111.49Z"/><path class="cls-2" d="M812.22,111.25a10.3,10.3,0,0,1-1.37-.91c-11.74-12.08-11.74-12.08-6-27.8.45-1.24,1-2.47,1.44-3.71C810.4,68,810.41,68,821.75,69c7.27.66,14.54,1.44,21.8,2.18.15,0,.28.17,1.14.71C839.3,81.82,839,94.56,827,101,821.78,103.74,817.19,107.74,812.22,111.25Z"/><path class="cls-2" d="M840.78,16.92c1.5,5.73,3.05,11,4.17,16.31.28,1.34-.48,3.18-1.31,4.42-1.67,2.47-4.21,4.43-5.55,7-6.57,12.83-19.25,12.17-31.49,14.87,1.24-8.47,2.28-16.28,3.57-24.06.79-4.67.57-10.67,3.39-13.52s8.71-2.16,13.28-2.93C831.25,18.29,835.68,17.69,840.78,16.92Z"/><path class="cls-2" d="M39.14,59.66C31,58,23.76,56.49,16.54,54.83c-1-.23-1.8-1.4-2.53-2.28-2-2.43-3.95-4.94-5.94-7.39C-.65,34.4-1,30.26,5.57,17,14,18.33,22.49,19.59,31,21.13A4.36,4.36,0,0,1,33.72,24C35.6,35.47,37.25,47,39.14,59.66Z"/><path class="cls-3" d="M389.46,322.77c.05-.92,2.14-2.38,3.39-2.49,15.4-1.42,30.83-2.63,47-4,.12,19.07-.09,38-.12,56.92l-2.56,0c0-9.94-.35-19.54-.39-29.31a1.58,1.58,0,0,0-1.38-1.56c-7.26-.9-7-.78-7,6s-.29,13.69.09,20.5c.29,5.07-1.58,6.74-7,5.51V343.64c-8-1.65-8.73-1.11-8.74,6.18,0,8.5,0,17,0,25.49.05,7.09,2.42,9.36,9.36,8.9,5.63-.37,11.25-.9,17.36-1.4v17.95L389,405.05V383l-.16.16c2.65-.25,5.29-.52,7.94-.73,1.32-.1,2.77-.43,4,0,5.64,1.84,7.83.47,7.92-5.66q.22-14.25,0-28.5"/><path class="cls-3" d="M388.85,383.15,389,383c-3.29.17-6.61.16-9.87.55-6.74.8-9.05-1.16-9.11-8.13,0-3.15,0-6.31,0-9.46.08-5.9,1.51-7.61,7.44-8.41,3.44-.46,6.93-.56,10.8-.86v8.14"/><path class="cls-3" d="M377.86,375.66c1.7-.15,3.47-.35,5.25-.43"/><path class="cls-3" d="M444,341.59c2.62,0,5.08-.22,7.33-.22,0,11.36.22,22.49-.11,33.61-.13,4.76-3,6.27-10.16,6.34.24-3-1.81-6.54,2.85-8.31.69-.26.75-2.72.76-4.16C444.75,359.88,444,351.14,444,341.59Z"/><path class="cls-3" d="M389.55,373.88v-8.8l10.55-1.14v8.71Z"/><path class="cls-3" d="M388.5,351.1l.15-.13-12.2.67v-7.29"/><path class="cls-3" d="M471.9,349.1c4.74-.33,9.47-.81,14.65-1.26v8.73"/><text class="cls-4" transform="translate(261.12 26.52) scale(1.09 1)">2019 <tspan class="cls-5" x="68.6" y="0">A</tspan><tspan x="87.16" y="0">UGGIE </tspan><tspan class="cls-6" x="178.91" y="0">AW</tspan><tspan class="cls-7" x="221.61" y="0">ARDS</tspan></text><text class="cls-8" transform="translate(168.64 117.27)">BEST DEVELOPER<tspan class="cls-9"><tspan x="179.93" y="75.55">T</tspan><tspan class="cls-10" x="212.27" y="75.55">OOL</tspan></tspan></text></g></g></svg>