<svg id="Layer_1" data-name="Layer 1" xmlns="http://www.w3.org/2000/svg" viewBox="0 0 200 100"><defs><style>.cls-1{fill:#2d2e43;}</style></defs><title>cloud-edit</title><path class="cls-1" d="M133,45.21c3-12.88-6.57-32.74-27.12-32.74a27.64,27.64,0,0,0-22,11,18.16,18.16,0,0,0-14.25,5.21A18.67,18.67,0,0,0,64.38,46,21.4,21.4,0,0,0,72.05,87.4h55.76A21.4,21.4,0,0,0,149.18,66,21.15,21.15,0,0,0,133,45.21ZM128,82.05H72.05a15.9,15.9,0,0,1-3.69-31.37,2.57,2.57,0,0,0,1.78-1.36A2.74,2.74,0,0,0,70.27,47a13.19,13.19,0,0,1,3.15-14.25A13.45,13.45,0,0,1,82.6,29a11.46,11.46,0,0,1,2.19.14A2.69,2.69,0,0,0,87.53,28,22.09,22.09,0,0,1,106,18.08c7.12,0,26,6,21.09,28.63A3.42,3.42,0,0,0,127.4,49a2.89,2.89,0,0,0,2,1.23A15.93,15.93,0,0,1,128,82.05Z"/><path class="cls-1" d="M84.38,54l7-7a2.72,2.72,0,0,0-3.84-3.84l-9,8.9a2.66,2.66,0,0,0,0,3.84l8.91,8.9a2.91,2.91,0,0,0,3.83,0,2.63,2.63,0,0,0,0-3.83Z"/><path class="cls-1" d="M112.6,43.15A2.71,2.71,0,0,0,108.77,47l7,7-7,7a2.64,2.64,0,0,0,0,3.83,3.07,3.07,0,0,0,3.83,0l8.91-8.9a2.66,2.66,0,0,0,0-3.84Z"/><path class="cls-1" d="M100,39.86A2.79,2.79,0,0,0,94.52,41L100,68.22a3,3,0,0,0,3.29,2.19,2.81,2.81,0,0,0,2.19-3.29Z"/><path class="cls-1" d="M197,0H157.34a12,12,0,0,0-12,12V27.05a3,3,0,0,0,3,3H188a12,12,0,0,0,12-12V3A3,3,0,0,0,197,0ZM162.93,20.16a1.42,1.42,0,0,1-.38,1,1.27,1.27,0,0,1-1,.4,1.32,1.32,0,0,1-1.06-.48l-6.14-7.86v6.91a1.45,1.45,0,0,1-.36,1,1.22,1.22,0,0,1-1,.4,1.24,1.24,0,0,1-1-.4,1.42,1.42,0,0,1-.37-1V9.88a1.41,1.41,0,0,1,.38-1,1.29,1.29,0,0,1,1-.39,1.24,1.24,0,0,1,1,.47l6.14,7.81V9.88a1.41,1.41,0,0,1,.37-1,1.24,1.24,0,0,1,.95-.39,1.3,1.3,0,0,1,1,.39,1.41,1.41,0,0,1,.38,1Zm10-6.36c.91,0,1.36.37,1.36,1.12S173.86,16,173,16h-4.67v3.24h5c.9,0,1.35.37,1.35,1.12s-.45,1.1-1.35,1.1h-6.49a1.22,1.22,0,0,1-1.34-1.34V9.9a1.34,1.34,0,0,1,.35-1,1.3,1.3,0,0,1,1-.35h6.49c.9,0,1.35.36,1.35,1.1s-.45,1.12-1.35,1.12h-5v3Zm21.94-3.54-3.81,10.43a1.39,1.39,0,0,1-.58.69,1.8,1.8,0,0,1-.91.25,1.74,1.74,0,0,1-.9-.25,1.41,1.41,0,0,1-.56-.69L185.4,13l-2.81,7.72a1.37,1.37,0,0,1-.57.69,1.71,1.71,0,0,1-1.78,0,1.34,1.34,0,0,1-.58-.69l-3.81-10.43a1.56,1.56,0,0,1-.11-.58,1.11,1.11,0,0,1,.4-.91,1.42,1.42,0,0,1,1-.34,1.47,1.47,0,0,1,.8.23,1.27,1.27,0,0,1,.52.67l2.83,8.12,2.93-8.09a1.38,1.38,0,0,1,1.28-.91,1.32,1.32,0,0,1,.77.24,1.4,1.4,0,0,1,.51.69l2.81,8.21,2.91-8.26a1.34,1.34,0,0,1,.5-.67,1.36,1.36,0,0,1,.76-.23,1.32,1.32,0,0,1,.91.33,1.14,1.14,0,0,1,.38.9A2,2,0,0,1,194.89,10.26Z"/></svg>