<svg id="Layer_1" data-name="Layer 1" xmlns="http://www.w3.org/2000/svg" viewBox="0 0 200 100"><defs><style>.cls-1{fill:#2d2e43;}</style></defs><title>hosting</title><path class="cls-1" d="M130.49,12.5h-61a5.35,5.35,0,0,0-5.36,5.36V30.05a5.35,5.35,0,0,0,5.36,5.36h61a5.35,5.35,0,0,0,5.36-5.36V17.86A5.35,5.35,0,0,0,130.49,12.5ZM68.85,17.86a.65.65,0,0,1,.66-.66h61a.65.65,0,0,1,.66.66V30.05a.65.65,0,0,1-.66.66h-61a.65.65,0,0,1-.66-.66Z"/><circle class="cls-1" cx="73.87" cy="23.96" r="3.87"/><circle class="cls-1" cx="83.76" cy="23.96" r="3.87"/><path class="cls-1" d="M130.49,38.54h-61a5.35,5.35,0,0,0-5.36,5.36V56.1a5.35,5.35,0,0,0,5.36,5.36h61a5.35,5.35,0,0,0,5.36-5.36V43.9A5.35,5.35,0,0,0,130.49,38.54ZM68.85,43.9a.65.65,0,0,1,.66-.66h61a.65.65,0,0,1,.66.66V56.1a.65.65,0,0,1-.66.66h-61a.65.65,0,0,1-.66-.66Z"/><circle class="cls-1" cx="73.87" cy="50" r="3.87"/><circle class="cls-1" cx="83.76" cy="50" r="3.87"/><path class="cls-1" d="M130.49,64.51h-61a5.35,5.35,0,0,0-5.36,5.35V82.14a5.35,5.35,0,0,0,5.36,5.36h61a5.35,5.35,0,0,0,5.36-5.36V70A5.42,5.42,0,0,0,130.49,64.51ZM68.85,70a.65.65,0,0,1,.66-.66h61a.65.65,0,0,1,.66.66V82.14a.65.65,0,0,1-.66.66h-61a.65.65,0,0,1-.66-.66Z"/><circle class="cls-1" cx="73.87" cy="76.04" r="3.87"/><circle class="cls-1" cx="83.76" cy="76.04" r="3.87"/><path class="cls-1" d="M197,0H157.34a12,12,0,0,0-12,12V27.05a3,3,0,0,0,3,3H188a12,12,0,0,0,12-12V3A3,3,0,0,0,197,0ZM162.93,20.16a1.42,1.42,0,0,1-.38,1,1.27,1.27,0,0,1-1,.4,1.32,1.32,0,0,1-1.06-.48l-6.14-7.86v6.91a1.45,1.45,0,0,1-.36,1,1.22,1.22,0,0,1-1,.4,1.24,1.24,0,0,1-1-.4,1.42,1.42,0,0,1-.37-1V9.88a1.41,1.41,0,0,1,.38-1,1.29,1.29,0,0,1,1-.39,1.24,1.24,0,0,1,1,.47l6.14,7.81V9.88a1.41,1.41,0,0,1,.37-1,1.24,1.24,0,0,1,.95-.39,1.3,1.3,0,0,1,1,.39,1.41,1.41,0,0,1,.38,1Zm10-6.36c.91,0,1.36.37,1.36,1.12S173.86,16,173,16h-4.67v3.24h5c.9,0,1.35.37,1.35,1.12s-.45,1.1-1.35,1.1h-6.49a1.22,1.22,0,0,1-1.34-1.34V9.9a1.34,1.34,0,0,1,.35-1,1.3,1.3,0,0,1,1-.35h6.49c.9,0,1.35.36,1.35,1.1s-.45,1.12-1.35,1.12h-5v3Zm21.94-3.54-3.81,10.43a1.39,1.39,0,0,1-.58.69,1.8,1.8,0,0,1-.91.25,1.74,1.74,0,0,1-.9-.25,1.41,1.41,0,0,1-.56-.69L185.4,13l-2.81,7.72a1.37,1.37,0,0,1-.57.69,1.71,1.71,0,0,1-1.78,0,1.34,1.34,0,0,1-.58-.69l-3.81-10.43a1.56,1.56,0,0,1-.11-.58,1.11,1.11,0,0,1,.4-.91,1.42,1.42,0,0,1,1-.34,1.47,1.47,0,0,1,.8.23,1.27,1.27,0,0,1,.52.67l2.83,8.12,2.93-8.09a1.38,1.38,0,0,1,1.28-.91,1.32,1.32,0,0,1,.77.24,1.4,1.4,0,0,1,.51.69l2.81,8.21,2.91-8.26a1.34,1.34,0,0,1,.5-.67,1.36,1.36,0,0,1,.76-.23,1.32,1.32,0,0,1,.91.33,1.14,1.14,0,0,1,.38.9A2,2,0,0,1,194.89,10.26Z"/></svg>